<?xml version="1.0" encoding="utf-8"?>
<!-- Generator: Adobe Illustrator 19.0.1, SVG Export Plug-In . SVG Version: 6.00 Build 0)  -->
<svg version="1.1" id="Layer_1" xmlns:sketch="http://www.bohemiancoding.com/sketch/ns"
	 xmlns="http://www.w3.org/2000/svg" xmlns:xlink="http://www.w3.org/1999/xlink" x="0px" y="0px" width="110px" height="31px"
	 viewBox="14 11 110 31" enable-background="new 14 11 110 31" xml:space="preserve">
<title>EdSurgeLogoInvert</title>
<desc>Created with Sketch.</desc>
<path id="edSurge" sketch:type="MSShapeGroup" fill="#FFFFFF" d="M18,28.6v-0.8h9v-3.5c0-3.5-1.2-6.5-6.3-6.5S14,20.7,14,24.1v4.3
	c0,3.9,1.8,6.2,6.8,6.2c1.9,0,4.1-0.3,5.9-1l-0.6-3.1c-1.8,0.5-3.4,0.8-4.9,0.8C18.7,31.3,18,30.6,18,28.6z M18,23.7
	c0-1.5,0.7-2.6,2.7-2.6s2.5,1.1,2.5,2.6v0.8H18V23.7z M30,29.1c0,3.7,1.7,5.6,5,5.6c2,0,3.7-0.7,5.1-1.7l0.4,1.4h3.2V11l-4,0.6v6.7
	c-1.3-0.3-2.9-0.5-4.3-0.5c-3.8,0-5.3,2.1-5.3,5.7V29.1z M39.7,29.8c-0.9,0.8-2.3,1.5-3.6,1.5c-1.5,0-2-0.7-2-2.1v-5.7
	c0-1.5,0.6-2.2,2-2.2c1.2,0,2.5,0.2,3.6,0.4V29.8z M62.3,28.3c0-4.4-0.3-5.4-6.2-6.8c-3.8-0.9-3.9-1-3.9-3.5c0-1.9,0.5-2.5,3.3-2.5
	c1.9,0,4.1,0.3,5.9,0.7l0.5-3.5c-2.2-0.5-4.5-0.7-6.4-0.7c-5.6,0-7.4,2-7.4,6c0,4.7,0.7,5.7,6.1,6.9c4,0.9,4,1.1,4,3.5
	c0,2.1-0.5,2.8-3.5,2.8c-2.2,0-4.2-0.4-6.2-1l-0.7,3.3c1.5,0.7,4.4,1.3,6.9,1.3C61.1,34.7,62.3,32.5,62.3,28.3z M66.1,18.2v11.7
	c0,2.9,1,4.8,3.7,4.8c1.9,0,4.4-0.7,6.5-1.7l0.4,1.4h3.1V18.2h-4v11.2c-1.5,0.8-3.2,1.4-4.2,1.4c-0.9,0-1.3-0.4-1.3-1.3V18.2H66.1z
	 M92.3,17.8c-1.4,0.4-3.4,1.5-4.2,2.1l-0.3-1.8h-3.4v16.2h4V23.9c1.5-0.9,2.7-1.7,4.3-2.4L92.3,17.8z M101,30c4.5,0,6.5-2,6.5-5.3
	v-1.5c0-0.9-0.2-1.8-0.6-2.5c0.6-0.2,1.2-0.3,1.8-0.5v-2h-5c-0.8-0.2-1.7-0.3-2.8-0.3c-4.7,0-6.4,2-6.5,5.4v1.5c0,2,0.7,3.5,2.2,4.3
	c-0.8,0.6-1.7,1.4-1.7,2.8c0,2.1,0.9,2.8,3.2,3.1c2.1,0.2,2.8,0.3,4.7,0.5c1.2,0.1,1.5,0.3,1.5,1.3c0,1.1-0.6,1.3-3.9,1.3
	c-1.9,0-3.7-0.3-5.4-0.7l-0.5,3c1.8,0.6,4.4,0.8,6.2,0.8c6,0,7.3-1.4,7.3-4.8c0-2.3-0.8-3.6-3.5-3.9c-1.9-0.2-2.9-0.3-4.7-0.5
	c-0.6-0.1-0.9-0.3-0.9-0.7c0-0.5,0.4-1,1-1.3C100.3,30,100.6,30,101,30z M103.7,23.3v1.2c0,1.6-0.8,2.2-2.7,2.2
	c-1.9,0-2.7-0.6-2.7-2.2v-1.2c0-1.5,0.7-2.3,2.7-2.3C103,21.1,103.7,21.8,103.7,23.3z M115,28.6v-0.8h9v-3.5c0-3.5-1.2-6.5-6.3-6.5
	s-6.7,2.9-6.7,6.3v4.3c0,3.9,1.8,6.2,6.8,6.2c1.9,0,4.1-0.3,5.9-1l-0.6-3.1c-1.8,0.5-3.4,0.8-4.9,0.8C115.7,31.3,115,30.6,115,28.6z
	 M115,23.7c0-1.5,0.7-2.6,2.7-2.6c2,0,2.5,1.1,2.5,2.6v0.8H115V23.7z"/>
</svg>
