<?xml version="1.0" encoding="utf-8"?>
<!-- Generator: Adobe Illustrator 19.0.1, SVG Export Plug-In . SVG Version: 6.00 Build 0)  -->
<svg version="1.1" id="Layer_1" xmlns="http://www.w3.org/2000/svg" xmlns:xlink="http://www.w3.org/1999/xlink" x="0px" y="0px"
	 width="114px" height="29px" viewBox="0 0 114 29" enable-background="new 0 0 114 29" xml:space="preserve">
<path fill-rule="evenodd" clip-rule="evenodd" fill="#FFFFFF" d="M69.4,8.1c-1.8,0-3.3,0.4-4.7,1.2c0-4.2,0-8,0.1-9.3l-8.8,1.6v0.8
	L57,2.5c1.2,0.3,1.6,0.9,1.8,2.5c0.3,3.1,0.1,19.9,0,22.7c2.4,0.5,4.8,0.9,7.3,0.9c6.9,0,11.1-4.3,11.1-11.1
	C77.3,12.1,73.9,8.1,69.4,8.1L69.4,8.1z M66.4,27.1c-0.5,0-1.2,0-1.6-0.1c-0.1-1.8-0.3-9.6-0.1-16.4c0.8-0.3,1.3-0.4,2-0.4
	c2.9,0,4.5,3.4,4.5,7.6C71.2,23.1,69.2,27.1,66.4,27.1L66.4,27.1z"/>
<path fill-rule="evenodd" clip-rule="evenodd" fill="#FFFFFF" d="M23.1,0.5H0v1.2l1.3,0.1C3,2.1,3.7,3.1,3.9,5.6
	c0.4,4.7,0.3,13.2,0,17.3c-0.3,2.5-0.9,3.7-2.6,3.8L0,27v1h14.8v-1l-1.6-0.3c-1.7-0.1-2.4-1.3-2.6-3.8c-0.1-1.7-0.3-4.5-0.3-7.9
	l3.1,0.1c2,0,2.9,1.6,3.3,3.8H18V9.7h-1.2c-0.4,2.2-1.3,3.8-3.3,3.8l-3.1,0.1c0-4.5,0.1-8.6,0.3-11.1h4.6c3.5,0,5.4,2.2,6.7,6.2
	l1.3-0.4L23.1,0.5L23.1,0.5z"/>
<path fill-rule="evenodd" clip-rule="evenodd" fill="#FFFFFF" d="M30.5,7.9c6.6,0,9.8,4.5,9.8,10.4c0,5.6-3.7,10.4-10.2,10.4
	c-6.6,0-9.8-4.5-9.8-10.4C20.3,12.6,24,7.9,30.5,7.9L30.5,7.9z M30.1,9.2c-2.9,0-3.7,3.9-3.7,9c0,5,1.3,9,3.9,9c3,0,3.8-3.9,3.8-9
	C34.2,13.2,32.9,9.2,30.1,9.2L30.1,9.2z"/>
<path fill-rule="evenodd" clip-rule="evenodd" fill="#FFFFFF" d="M79,18.3C79,13,82.4,7.9,89.1,7.9c5.5,0,8.1,4.1,8.1,9.4H85
	c-0.1,4.8,2.2,8.4,6.9,8.4c2.1,0,3.1-0.5,4.5-1.4l0.5,0.7c-1.3,1.8-4.2,3.7-7.9,3.7C83.2,28.6,79,24.4,79,18.3L79,18.3z M85,15.9
	l6.2-0.1c0-2.6-0.4-6.6-2.6-6.6C86.4,9.2,85.2,12.8,85,15.9L85,15.9z"/>
<path fill-rule="evenodd" clip-rule="evenodd" fill="#FFFFFF" d="M112.8,8.9c-1.6-0.7-3.7-1-6-1c-4.8,0-7.9,2.9-7.9,6.3
	c0,3.4,2.2,4.8,5.4,5.9c3.3,1.2,4.2,2.1,4.2,3.7c0,1.6-1.2,3-3.3,3c-2.5,0-4.3-1.4-5.8-5.4l-0.9,0.3l0.1,5.8
	c1.6,0.7,4.5,1.2,6.9,1.2c5.1,0,8.4-2.6,8.4-6.7c0-2.8-1.4-4.3-4.8-5.6c-3.7-1.4-5-2.4-5-4.1c0-1.7,1.2-2.9,2.8-2.9
	c2.4,0,3.9,1.4,5.1,5L113,14L112.8,8.9L112.8,8.9z"/>
<path fill-rule="evenodd" clip-rule="evenodd" fill="#FFFFFF" d="M57.4,8.4c-2.2-1.3-6.2-0.7-8.3,4.1l0.1-4.6l-8.8,1.7v0.8l0.9,0.1
	c1.2,0.1,1.7,0.8,1.8,2.5c0.3,3.1,0.1,8.6,0,11.4c-0.1,1.6-0.7,2.4-1.8,2.5L40.5,27v1h12.2v-1l-1.6-0.1c-1.3-0.1-1.7-0.9-1.8-2.5
	c-0.3-2.5-0.3-7.5-0.1-10.6c0.7-0.9,3.5-1.7,6.2,0L57.4,8.4L57.4,8.4z"/>
</svg>
