<?xml version="1.0" encoding="utf-8"?>
<!-- Generator: Adobe Illustrator 19.0.1, SVG Export Plug-In . SVG Version: 6.00 Build 0)  -->
<svg version="1.1" id="Layer_1" xmlns="http://www.w3.org/2000/svg" xmlns:xlink="http://www.w3.org/1999/xlink" x="0px" y="0px"
	 width="65px" height="33px" viewBox="-28 0 65 33" enable-background="new -28 0 65 33" xml:space="preserve">
<g display="none">
	<path display="inline" fill="#0A9E01" d="M10.1,84.4V99H6.4V84.4H1.2v-3.6h14.1v3.6H10.1z"/>
	<path display="inline" fill="#0A9E01" d="M26.3,93.3h-8.2c0.1,1.9,1.5,2.6,2.8,2.6c1,0,1.8-0.4,2.3-1l2.5,2.1
		c-1.1,1.4-3.1,2.2-4.9,2.2c-3.9,0-6.4-2.8-6.4-7.1c0-4.2,2.6-7.1,6.1-7.1c3.6,0,5.7,3.2,5.7,7.1C26.4,92.7,26.3,93.1,26.3,93.3
		L26.3,93.3z M20.4,88.2c-1.3,0-2.1,1.1-2.2,2.4h4.7C22.8,89.4,22,88.2,20.4,88.2L20.4,88.2L20.4,88.2L20.4,88.2z"/>
	<path display="inline" fill="#0A9E01" d="M34.9,99.3c-3.6,0-6.4-2.9-6.4-7.1c0-4.2,2.8-7.1,6.5-7.1c2.6,0,4.3,1.3,5.4,3l-2.4,2.4
		c-0.8-1.1-1.7-2-3.1-2c-1.7,0-2.8,1.4-2.8,3.7c0,2.2,1.1,3.6,2.8,3.6c1.4,0,2.3-0.6,3.2-1.7l2.3,2.2C39.2,97.9,37.6,99.2,34.9,99.3
		L34.9,99.3L34.9,99.3L34.9,99.3z"/>
	<path display="inline" fill="#0A9E01" d="M51.4,99v-7.4c0-2.4-0.8-3.2-2.3-3.2c-1.5,0-2.3,0.7-2.3,3.1V99h-3.6V81.8l3.6-1.8v6.2
		c0.6-0.6,1.8-1.2,3.2-1.2c3.5,0,5,2.4,5,6.2V99H51.4z"/>
	<path display="inline" fill="#343C34" d="M69.4,86.1c-0.7-1.2-1.7-2-3.3-2c-2.7,0-4.3,2.4-4.3,5.8c0,3.3,1.6,5.8,4.3,5.8
		c1.6,0,2.6-0.7,3.6-2.3l3.1,1.8c-1.2,2.6-3.4,4.1-6.7,4.1c-4.8,0-8-3.6-8-9.4c0-5.5,3.3-9.4,8.1-9.4c3.4,0,5.5,1.7,6.7,4L69.4,86.1
		z"/>
	<path display="inline" fill="#343C34" d="M82.7,89.5c-0.6-0.5-1.3-0.9-2.1-0.9c-1.4,0-2.3,0.6-2.3,3V99h-3.6V85.4h3.6v0.9
		c0.6-0.6,1.5-1.2,2.8-1.2c1.2,0,2.1,0.5,2.5,1L82.7,89.5z"/>
	<path display="inline" fill="#343C34" d="M94,99v-0.9c-0.6,0.7-1.8,1.2-3.2,1.2c-3.5,0-5-2.4-5-6.2v-7.7h3.6v7.4
		c0,2.4,0.8,3.2,2.3,3.2c1.5,0,2.3-0.7,2.3-3.1v-7.5h3.6V99H94z"/>
	<path display="inline" fill="#343C34" d="M109.3,99v-7.4c0-2.4-0.8-3.2-2.3-3.2c-1.5,0-2.3,0.7-2.3,3.1V99H101V85.4h3.6v0.9
		c0.6-0.6,1.8-1.2,3.2-1.2c3.5,0,5,2.4,5,6.2V99H109.3z"/>
	<path display="inline" fill="#343C34" d="M121.9,99.3c-3.6,0-6.4-2.9-6.4-7.1c0-4.2,2.8-7.1,6.6-7.1c2.6,0,4.3,1.3,5.4,3l-2.4,2.4
		c-0.8-1.1-1.7-2-3.1-2c-1.7,0-2.8,1.4-2.8,3.7c0,2.2,1.1,3.6,2.8,3.6c1.4,0,2.3-0.6,3.2-1.7l2.3,2.2
		C126.2,97.9,124.6,99.2,121.9,99.3L121.9,99.3L121.9,99.3L121.9,99.3z"/>
	<path display="inline" fill="#343C34" d="M138.4,99v-7.4c0-2.4-0.8-3.2-2.3-3.2c-1.5,0-2.3,0.7-2.3,3.1V99h-3.6V81.8l3.6-1.8v6.2
		c0.6-0.6,1.8-1.2,3.2-1.2c3.5,0,5,2.4,5,6.2V99H138.4z"/>
</g>
<polygon fill="#FFFFFF" points="4.5,0 4.5,10.8 -6.3,10.8 -6.3,32.5 -17.2,32.5 -17.2,10.8 -28,10.8 -28,0 "/>
<rect x="15.3" fill="#FFFFFF" width="21.7" height="10.8"/>
<polygon fill="#FFFFFF" points="15.3,10.8 15.3,21.7 37,21.7 37,32.5 4.5,32.5 4.5,10.8 "/>
</svg>
