<?xml version="1.0" encoding="utf-8"?>
<!-- Generator: Adobe Illustrator 19.0.1, SVG Export Plug-In . SVG Version: 6.00 Build 0)  -->
<svg version="1.1" id="Layer_1" xmlns="http://www.w3.org/2000/svg" xmlns:xlink="http://www.w3.org/1999/xlink" x="0px" y="0px"
	 width="111.1px" height="45.3px" viewBox="0 0 111.1 45.3" style="enable-background:new 0 0 111.1 45.3;" xml:space="preserve">
<style type="text/css">
	.st0{fill:#FFFFFF;}
</style>
<path class="st0" d="M92.3,38.1C92,41,91.4,43.7,89,43.7h-1.1V27.1l0,0c0-0.8,0.3-1,0.8-1.1l0.8-0.2v-0.5h-5.8v0.5l0.6,0.2
	c0.6,0.2,0.8,0.4,0.8,1.2v15.6c0,0.8-0.3,1.2-1.2,1.2c-1,0-1.1-0.3-1.5-2l-3.6-16.7h-1.1l-3.4,16.1c-0.4,1.8-0.6,2.2-1.3,2.4
	l-0.5,0.1v0.5h4v-0.5L76,43.8c-0.8-0.2-1.1-0.6-0.6-2.7l0.4-1.8H79l0.5,2.4c0.3,1.6,0.3,1.9-0.9,2.1L78,43.9v0.5h14.8v-6.3H92.3z
	 M75.8,38.5l1.5-7.7l1.6,7.7H75.8z"/>
<path class="st0" d="M69.1,25.2v0.5l0.5,0.1c1.4,0.3,1.4,0.8,1.4,2.9v8.9l-4.9-12.4h-4v0.5l0.4,0.1c0.4,0.1,0.7,0.6,1.2,1.6l0,0
	v13.3c0,2,0,3-1,3.1l-0.5,0.1v0.5h4.1v-0.5c-1.8-0.3-1.8-0.9-1.8-3V29.3l6.2,15.1h1.2V28.9c0-2.3,0-2.8,1.1-3.1l0.4-0.1v-0.5H69.1z"
	/>
<path class="st0" d="M50.6,44.4h5.6v-0.5l-0.6-0.1c-0.6-0.1-0.8-0.4-0.8-1.2V35h1.3c0.8,0,1.2,0.2,1.3,1.9l0.1,3.6
	c0.1,3.2,1,4.1,2.6,4.1c1.6,0,2-1.1,2-2.6v-0.6h-0.6v0.5c0,1-0.1,1.8-0.5,1.8c-0.4,0-0.4-0.3-0.5-1.6l-0.2-2.4
	c-0.2-3.3-0.6-4.4-3.1-4.9c2.3-0.6,3.7-2.3,3.7-4.7c0-3.1-2.5-4.6-4.8-4.6h-9.5v0.5l0.5,0.1c1,0.2,1,0.8,1,3v11.1
	c0,2.5-0.7,3.7-2.3,3.7c-1.4,0-2.2-0.7-2.2-3.4V27c0-0.8,0.3-1,0.9-1.1l0.8-0.2v-0.5h-5.8v0.5l0.6,0.2c0.6,0.2,0.8,0.4,0.8,1.2V40
	c0,2.9,1.7,4.5,4.3,4.5c2.6,0,3.9-1.6,3.9-4.6V27.8c0-1.5,0.3-2,1.5-2c1,0,1.4,0.3,1.4,1.3v15.5c0,0.8-0.3,1.1-0.8,1.2l-0.6,0.2
	L50.6,44.4L50.6,44.4z M54.8,25.9h1.1c1.1,0,2.1,0.7,2.1,4.3c0,3.7-0.8,4.1-2.3,4.1h-0.9V25.9z"/>
<path class="st0" d="M36.2,34.6c0,8-0.7,9.2-2.1,9.2c-1.4,0-2.1-1.1-2.1-9.1c0-7.7,0.7-8.9,2.1-8.9C35.6,25.8,36.2,26.9,36.2,34.6
	 M39.3,34.8c0-5.3-1.7-9.7-5.2-9.7c-3.5,0-5.1,4.4-5.1,9.7c0,5.3,1.7,9.7,5.1,9.7C37.7,44.5,39.3,40.1,39.3,34.8"/>
<path class="st0" d="M27.4,27.1c0-0.8,0.2-1,0.8-1.2l0.6-0.2v-0.5H23v0.5l0.7,0.2c0.6,0.1,0.9,0.3,0.9,1.1v13.4
	c0,1.9-0.2,3.4-1.6,3.4c-0.9,0-1.6-0.7-1.5-1.2c0.1-0.9,1.5-0.8,1.6-2.2c0.1-1-0.6-1.4-1.1-1.5C21.1,38.8,20,39.5,20,41
	c0,1.9,1.2,3.6,3.3,3.6c2.3,0,4.1-1.6,4.1-4.5L27.4,27.1L27.4,27.1z"/>
<path class="st0" d="M107.5,0.8h0.6c1.7,0,2.3,2.8,2.5,5.7h0.5V0.1H101v6.3h0.5c0.2-2.9,0.8-5.7,2.5-5.7h0.6v16.6
	c0,0.8-0.3,1.1-0.8,1.2l-0.7,0.2v0.5h6v-0.5l-0.9-0.2c-0.5-0.1-0.8-0.3-0.8-1.2L107.5,0.8L107.5,0.8z"/>
<path class="st0" d="M94.8,9.7l0.9,0c1.3,0,1.6,0.5,1.9,3.5H98V5.5h-0.5c-0.3,2.4-0.6,3.5-1.8,3.5l-0.9,0V0.8h1.9
	c2.1,0,2.6,2.7,2.9,5.7h0.5V0.1h-9.6v0.5l0.6,0.2c0.6,0.2,0.8,0.6,0.8,1.2v15.4c0,0.8-0.3,1.1-0.8,1.2l-0.6,0.2v0.5h9.9v-6.3h-0.5
	c-0.3,2.9-0.7,5.7-3.2,5.7h-1.9L94.8,9.7L94.8,9.7z"/>
<path class="st0" d="M84.3,9.7l0.9,0c1.3,0,1.6,0.5,1.9,3.5h0.5V5.5H87c-0.3,2.4-0.6,3.5-1.8,3.5l-0.9,0V0.8h1.9
	c2.1,0,2.6,2.8,2.9,5.7h0.5V0.1h-9.9v0.5l0.9,0.2c0.6,0.2,0.8,0.6,0.8,1.2v15.4c0,0.8-0.3,1.1-0.8,1.2L80,18.8v0.5h9.9v-6.3h-0.5
	c-0.3,2.9-0.7,5.7-3.2,5.7h-1.9V9.7L84.3,9.7z"/>
<path class="st0" d="M72.8,0.8h0.8c1.1,0,2.1,0.7,2.1,4.3c0,3.6-0.8,4.1-2.3,4.1h-0.6V0.8z M68.6,19.3h5.6v-0.5l-0.6-0.1
	c-0.6-0.1-0.8-0.4-0.8-1.2V9.9h1c0.8,0,1.2,0.3,1.3,1.9l0.1,3.6c0.1,3.2,1,4.1,2.6,4.1c1.6,0,2-1.1,2-2.6v-0.6h-0.6v0.5
	c0,1-0.1,1.8-0.5,1.8c-0.4,0-0.4-0.3-0.5-1.6l-0.2-2.4C77.9,11,77.4,9.9,75,9.5c2.3-0.6,3.7-2.3,3.7-4.7c0-3.1-2.5-4.6-4.8-4.6h-5.3
	v0.5l0.6,0.2C69.8,0.9,70,1.2,70,1.9v15.5c0,0.8-0.3,1.1-0.8,1.2l-0.6,0.2L68.6,19.3L68.6,19.3z"/>
<path class="st0" d="M64.4,0.8H65c1.7,0,2.3,2.8,2.5,5.7H68V0.1H57.9v6.3h0.5c0.2-2.9,0.8-5.7,2.5-5.7h0.6v16.6
	c0,0.8-0.3,1.1-0.8,1.2L60,18.8v0.5h5.9v-0.5l-0.7-0.2c-0.7-0.2-0.8-0.7-0.8-1.2V0.8z"/>
<path class="st0" d="M57.9,14.3c0-5.7-6.3-7.2-6.3-11.4c0-0.9,0.3-2.2,1.7-2.2c2,0,2.8,2.6,3.1,5.7H57V0.1h-0.3
	C56.5,0.7,56.3,1,55.9,1c-0.6,0-1-1-2.5-1c-2.4,0-4,2-4,4.6c0,4.7,6.3,6.7,6.3,11c0,2-0.9,3.1-2.2,3.1c-1.9,0-3.1-2.2-3.4-5.7h-0.5
	v6.3h0.3c0.3-0.9,0.6-1,0.9-1c0.5,0,1.1,1.1,2.7,1.1C56,19.4,57.9,17.3,57.9,14.3"/>
<path class="st0" d="M39.7,1.9c0-0.8,0.3-1,0.8-1.1l0.8-0.2V0.1h-5.8v0.5l0.6,0.2c0.6,0.2,0.8,0.4,0.8,1.2v15.5
	c0,0.8-0.3,1.1-0.8,1.2l-0.6,0.2v0.5h9.1v-6.3H44c-0.3,2.9-0.9,5.7-3.2,5.7h-1.1V1.9z"/>
<path class="st0" d="M34.3,12.9c-0.3,2.9-0.9,5.7-3.2,5.7H30V1.9c0-0.8,0.3-1,0.8-1.1l0.8-0.2V0.1h-5.8v0.5l0.6,0.2
	c0.6,0.2,0.8,0.4,0.8,1.2v15.6c0,0.8-0.3,1.2-1.2,1.2c-1,0-1.2-0.3-1.5-2L20.9,0.1h-1.1l-3.4,16.1c-0.4,1.8-0.6,2.2-1.3,2.4
	l-0.5,0.1v0.5h4v-0.5L18,18.7c-0.8-0.2-1.1-0.6-0.6-2.7l0.4-1.8h3.4l0.5,2.4c0.3,1.6,0.3,1.9-0.9,2.1l-0.6,0.1v0.5h14.8v-6.3H34.3z
	 M17.8,13.4l1.5-7.8l1.6,7.8H17.8z"/>
<path class="st0" d="M13.6,0.1v0.5l0.6,0.1c0.8,0.2,1,0.7,0.6,2.7l-2,10L10.7,2.9c-0.2-1.1-0.4-2,0.6-2.1l0.6-0.1V0.1H6.5v0.5
	l0.4,0.1c0.6,0.1,0.6,0.5,0.9,1.5l0.5,2.5l-1.6,8.6L4.5,2.9c-0.3-1.1-0.3-2,0.6-2.2l0.4-0.1V0.1H0v0.5l0.5,0.1
	C1,0.9,1.3,1.1,1.6,2.7l3.5,16.7v0h1.1L8.7,6.6l2.6,12.7h1l3.4-16.1c0.4-1.7,0.6-2.3,1.2-2.5l0.5-0.1V0.1H13.6z"/>
</svg>
