<?xml version="1.0" standalone="no"?>
<!DOCTYPE svg PUBLIC "-//W3C//DTD SVG 20010904//EN"
 "http://www.w3.org/TR/2001/REC-SVG-20010904/DTD/svg10.dtd">
<svg version="1.0" xmlns="http://www.w3.org/2000/svg"
 width="500.000000pt" height="500.000000pt" viewBox="0 0 500.000000 500.000000"
 preserveAspectRatio="xMidYMid meet">
<metadata>
Created by potrace 1.11, written by Peter Selinger 2001-2013
</metadata>
<g transform="translate(0.000000,500.000000) scale(0.100000,-0.100000)"
fill="#000000" stroke="none">
<path d="M2477 3763 c-3 -4 -206 -471 -451 -1038 -493 -1136 -527 -1211 -592
-1302 -50 -71 -87 -93 -188 -119 -62 -15 -66 -18 -66 -45 l0 -29 395 0 395 0
0 28 c0 28 -1 29 -81 40 -103 15 -163 41 -189 84 -42 68 -25 136 108 444 l99
229 484 3 484 2 80 -192 c145 -353 163 -431 116 -497 -30 -42 -66 -59 -156
-73 -73 -11 -75 -12 -75 -40 l0 -28 495 0 495 0 0 29 c0 28 -2 29 -67 41 -137
23 -209 86 -292 253 -29 56 -247 577 -486 1157 l-434 1055 -34 3 c-20 2 -37
-1 -40 -5z m138 -1071 c109 -265 196 -485 193 -487 -3 -3 -192 -4 -420 -3
l-415 3 215 498 c121 279 219 492 223 485 3 -7 95 -230 204 -496z"/>
</g>
</svg>
